<svg width="200" height="57" viewBox="0 0 200 57" fill="none" xmlns="http://www.w3.org/2000/svg">
<g clip-path="url(#clip0_404_1200)">
<path d="M200 42.709H194.043L193.945 42.3184V39.6816L193.848 39.3887L192.969 40.4629L191.992 41.4395L190.625 42.3184L189.258 42.9043L187.891 43.2949L186.23 43.5879H184.18L182.031 43.2949L180.371 42.8066L178.809 42.123L177.246 41.1465L176.27 40.3652L175.293 39.3887L174.219 37.9238L173.34 36.459L172.559 34.5059L172.07 32.3574L171.875 30.6973V28.7441L172.168 26.6934L172.656 24.8379L173.242 23.373L174.121 21.8105L175.195 20.4434L176.562 19.0762L177.93 18.0996L179.492 17.2207L181.055 16.6348L182.715 16.2441L183.594 16.1465H186.523L188.086 16.4395L189.941 17.123L191.309 17.9043L192.188 18.5879L192.871 19.1738L193.555 19.9551L193.652 19.8574V9.50586L193.75 8.04102H200V42.709ZM185.059 21.9082L183.301 22.2988L182.227 22.7871L181.152 23.4707L180.078 24.5449L179.297 25.5215L178.613 26.8887L178.223 28.4512V30.9902L178.418 32.0645L178.906 33.5293L179.688 34.7988L180.371 35.4824L181.543 36.5566L182.715 37.1426L183.887 37.5332L185.84 37.8262L187.207 37.7285L188.867 37.3379L190.332 36.6543L191.309 35.9707L192.188 35.0918L192.871 34.2129L193.555 32.9434L193.945 31.7715L194.141 30.502V29.4277L193.945 27.8652L193.457 26.4004L192.773 25.2285L191.992 24.3496L191.016 23.4707L189.941 22.7871L188.477 22.2012L187.012 21.9082H185.059Z" fill="#AABABD"/>
<path d="M112.402 16.4395L113.867 16.9277L115.43 17.8066L116.504 18.6855L117.383 19.5645L118.066 20.4434V16.9277H124.219L124.316 17.0254V40.9512L124.219 42.709H118.066V40.5605L117.969 39.3887L116.992 40.6582L116.016 41.5371L114.746 42.3184L113.672 42.8066L112.402 43.1973L110.059 43.5879H108.398L106.641 43.3926L104.785 42.9043L103.027 42.123L101.953 41.5371L100.684 40.5605L99.5117 39.4863L98.4375 38.0215L97.5586 36.459L96.9727 35.0918L96.4844 33.5293L96.0938 31.3809V28.1582L96.582 25.7168L97.2656 23.7637L98.0469 22.2988L99.2188 20.6387L100.586 19.2715L101.855 18.2949L103.613 17.3184L105.078 16.7324L106.934 16.2441L107.715 16.1465H110.84L112.402 16.4395ZM109.18 21.9082L107.422 22.2988L106.348 22.7871L104.98 23.7637L103.711 25.2285L103.125 26.3027L102.637 27.4746L102.344 29.1348V30.4043L102.441 31.1855L102.734 32.4551L103.125 33.4316L103.906 34.7988L104.785 35.7754L105.762 36.5566L107.227 37.3379L108.887 37.7285H111.719L113.281 37.3379L114.746 36.5566L115.625 35.7754L116.504 34.7988L117.188 33.7246L117.773 32.2598L118.164 30.3066V29.1348L118.066 28.5488L117.676 26.9863L116.992 25.6191L116.113 24.3496L115.234 23.5684L114.062 22.7871L112.598 22.2012L111.035 21.9082H109.18Z" fill="#AABABD"/>
<path d="M147.754 16.3418L149.805 17.0254L151.66 18.002L152.832 18.8809L154.004 19.9551L154.785 20.9316L155.859 22.6895L156.738 24.7402L157.324 26.791L157.617 28.8418V31.5762L157.129 34.0176L156.641 35.4824L155.762 37.3379L154.59 38.998L153.223 40.4629L151.953 41.4395L150.391 42.3184L148.926 42.9043L147.07 43.3926L145.41 43.5879H143.652L141.797 43.2949L140.234 42.8066L138.672 42.0254L137.793 41.4395L136.816 40.5605L136.23 39.7793H136.035L135.938 51.6934L135.84 51.791H130.371L129.785 51.6934L129.688 49.6426V17.0254L129.785 16.9277H135.547L135.645 20.4434L136.523 19.4668L137.012 18.9785L137.793 18.2949L139.355 17.3184L140.43 16.8301L142.09 16.3418L143.359 16.1465H146.289L147.754 16.3418ZM142.578 21.9082L141.504 22.1035L140.039 22.5918L139.062 23.1777L137.891 24.1543L137.012 25.2285L136.426 26.2051L135.938 27.4746L135.645 28.8418V30.6973L135.84 31.8691L136.328 33.334L137.109 34.7012L138.281 35.873L139.453 36.752L140.82 37.3379L142.285 37.7285H144.727L145.215 37.6309L146.875 37.1426L148.34 36.2637L149.219 35.4824L150 34.5059L150.684 33.334L151.172 32.0645L151.465 30.4043V29.1348L151.27 28.0605L150.684 26.3027L150 25.1309L149.219 24.252L148.242 23.373L147.168 22.6895L145.898 22.2012L144.434 21.9082H142.578Z" fill="#AABABD"/>
<path d="M161.816 16.9277H167.969V41.1465L167.871 42.709H161.816L161.719 36.3613V17.0254L161.816 16.9277Z" fill="#AABABD"/>
<path d="M83.3008 8.13867L85.4492 8.62695L87.0117 9.21289L88.6719 10.0918L89.8438 10.9707L90.7227 11.752L91.7969 13.2168L92.6758 15.0723L93.1641 16.6348L93.457 18.5879V20.1504L93.1641 22.0059L92.5781 23.7637L91.6992 25.4238L90.625 26.6934L89.8438 27.4746L88.0859 28.6465L86.2305 29.5254L83.9844 30.209H83.4961L84.082 30.8926L84.8633 31.5762L86.1328 32.748L87.3047 33.8223L89.2578 35.5801L90.625 36.8496L91.4062 37.5332L92.6758 38.7051L93.6523 39.584L94.4336 40.2676L95.1172 40.8535L95.3125 41.3418L94.3359 42.123L92.8711 42.8066L91.6016 43.0996H90.332L88.4766 42.8066L87.207 42.3184L86.1328 41.7324L84.9609 40.8535L81.9336 37.8262L81.0547 36.752L80.1758 35.7754L79.4922 34.9941L78.6133 34.0176L77.7344 32.9434L76.8555 31.9668L76.1719 31.1855L75.5859 30.7949L74.8047 30.6973V33.8223L74.707 42.6113L74.6094 42.709H68.0664L67.7734 42.6113L67.6758 41.8301V8.72461L67.7734 7.94336H81.1523L83.3008 8.13867ZM74.9023 13.2168L74.707 13.4121V23.1777L74.8047 25.6191L74.9023 25.7168H79.0039L80.3711 25.6191L82.1289 25.2285L83.5938 24.6426L84.8633 23.7637L85.6445 22.8848L86.4258 21.3223L86.6211 20.0527V18.9785L86.5234 18.002L86.3281 17.3184L85.8398 16.2441L85.2539 15.4629L84.2773 14.584L83.2031 13.998L81.6406 13.4121L79.9805 13.2168H74.9023Z" fill="#AABABD"/>
<path d="M29.5898 1.20508L32.0312 2.18164L33.8867 3.1582L35.4492 4.23242L36.7188 5.20898L37.9883 6.38086L38.8672 7.45508L39.6484 8.43164L40.625 9.89648L41.5039 11.459L42.2852 13.3145L42.8711 15.0723L43.3594 17.0254L43.6523 19.0762L43.75 20.3457V22.3965L43.457 24.5449L42.9688 26.4004L42.3828 28.0605L41.6016 29.7207L40.7227 31.0879L39.6484 32.4551L38.1836 33.9199L36.9141 34.8965L35.5469 35.7754L34.375 36.459L33.9844 36.8496L34.082 37.1426L38.0859 38.5098L48.5352 41.8301L49.707 42.2207L49.5117 42.709L48.4375 44.4668L47.5586 45.541L46.4844 46.7129L45.3125 47.6895L43.75 48.666L42.1875 49.4473L40.1367 50.1309L38.2812 50.5215L37.4023 50.6191H35.5469L33.8867 50.3262L32.3242 49.8379L30.3711 49.0566L28.5156 48.0801L26.9531 47.0059L25.7812 46.127L24.707 45.248L24.3164 44.9551L23.9258 45.1504L23.6328 45.6387L23.5352 47.2012V56.6738H21.9727V56.5762L18.8477 55.502L16.6016 54.4277L14.4531 53.1582L12.6953 51.8887L11.5234 50.9121L10.4492 50.0332L9.66797 49.252L8.98438 48.4707L8.10547 47.4941L7.03125 46.2246L6.05469 44.8574L5.07812 43.3926L3.71094 40.8535L2.63672 38.4121L1.66016 35.5801L0.976562 32.8457L0.488281 30.1113L0.0976562 26.6934H0V21.7129H0.0976562L0.292969 20.7363L0.976562 17.5137L1.66016 15.2676L2.63672 12.9238L3.80859 10.7754L4.98047 9.01758L5.95703 7.74805L7.71484 5.99023L9.27734 4.7207L10.8398 3.64648L13.0859 2.47461L14.8438 1.69336L17.1875 1.00977L19.6289 0.521484L19.9219 0.326172H25.8789L29.5898 1.20508ZM22.168 12.1426L20.8984 12.3379L19.3359 12.8262L17.8711 13.6074L16.5039 14.6816L15.332 16.0488L14.6484 17.123L14.1602 18.2949L13.7695 19.8574V22.2988L13.9648 23.373L14.3555 24.6426L14.8438 25.7168L15.5273 26.791L16.6016 27.9629L17.8711 28.9395L18.9453 29.5254L20.6055 30.1113L22.2656 30.4043H23.2422L24.8047 30.1113L26.3672 29.623L27.9297 28.8418L29.2969 27.7676L30.3711 26.498L31.25 25.0332L31.8359 23.4707L32.1289 21.8105V20.834L31.9336 19.5645L31.543 18.0996L30.8594 16.6348L29.8828 15.2676L29.1992 14.584L27.9297 13.6074L26.4648 12.8262L24.8047 12.3379L23.1445 12.1426H22.168Z" fill="#AABABD"/>
<path d="M164.258 5.79492H165.332L166.602 6.18555L167.383 6.77148L168.164 7.65039L168.652 8.91992L168.75 9.89648L168.555 10.7754L168.066 11.752L167.383 12.5332L166.406 13.1191L165.527 13.4121H164.16L163.086 13.0215L162.207 12.3379L161.523 11.5566L161.133 10.6777L161.035 10.2871V9.01758L161.328 8.04102L161.914 7.16211L162.598 6.47852L163.77 5.89258L164.258 5.79492Z" fill="#AABABD"/>
</g>
<defs>
<clipPath id="clip0_404_1200">
<rect width="200" height="56.3981" fill="white" transform="translate(0 0.300781)"/>
</clipPath>
</defs>
</svg>
