<svg width="16" height="16" viewBox="0 0 16 16" fill="none" xmlns="http://www.w3.org/2000/svg">
<path d="M10.6667 1.33333H10.5527C10.4143 0.943661 10.1587 0.60634 9.82108 0.367629C9.48342 0.128917 9.08018 0.000504499 8.66667 0L7.33333 0C6.91982 0.000504499 6.51658 0.128917 6.17892 0.367629C5.84127 0.60634 5.58572 0.943661 5.44733 1.33333H5.33333C3.49533 1.33333 2 2.82867 2 4.66667V12.6667C2 14.5047 3.49533 16 5.33333 16H10.6667C12.5047 16 14 14.5047 14 12.6667V4.66667C14 2.82867 12.5047 1.33333 10.6667 1.33333ZM7.33333 1.33333H8.66667C8.83832 1.34101 9.0004 1.4146 9.11915 1.53879C9.2379 1.66297 9.30418 1.82818 9.30418 2C9.30418 2.17182 9.2379 2.33703 9.11915 2.46121C9.0004 2.5854 8.83832 2.65899 8.66667 2.66667H7.33333C7.16168 2.65899 6.9996 2.5854 6.88085 2.46121C6.7621 2.33703 6.69582 2.17182 6.69582 2C6.69582 1.82818 6.7621 1.66297 6.88085 1.53879C6.9996 1.4146 7.16168 1.34101 7.33333 1.33333ZM12.6667 12.6667C12.6667 13.7693 11.7693 14.6667 10.6667 14.6667H5.33333C4.23067 14.6667 3.33333 13.7693 3.33333 12.6667V4.66667C3.33333 3.564 4.23067 2.66667 5.33333 2.66667H5.448C5.58618 3.05634 5.84158 3.39369 6.17915 3.63242C6.51671 3.87115 6.91989 3.99955 7.33333 4H8.66667C9.08012 3.99955 9.48329 3.87115 9.82085 3.63242C10.1584 3.39369 10.4138 3.05634 10.552 2.66667H10.6667C11.7693 2.66667 12.6667 3.564 12.6667 4.66667V12.6667Z" fill="black"/>
</svg>
