<svg width="158" height="33" viewBox="0 0 158 33" fill="none" xmlns="http://www.w3.org/2000/svg">
<g clip-path="url(#clip0_396_110)">
<path d="M9.09405 7.91011V5.05575C9.09405 3.91972 10.0235 2.99023 11.1596 2.99023H21.9003C23.0364 2.99023 23.9658 3.91972 23.9658 5.05575V7.91011M30.6966 17.1409V28.0864C30.6966 29.1439 29.831 30.0095 28.7735 30.0095H4.28636C3.22886 30.0095 2.36328 29.1441 2.36328 28.0864V17.205" stroke="#326452" stroke-width="1.92308" stroke-miterlimit="22.9256" stroke-linecap="round" stroke-linejoin="round"/>
<path d="M13.9647 20.3781C7.18335 19.9903 1.08008 18.0512 1.08008 14.5606V10.0095C1.08008 8.95034 1.94392 8.08643 3.00316 8.08643H30.0544C31.1136 8.08643 31.9775 8.9504 31.9775 10.0095V14.5606C31.9775 18.073 25.7971 20.0146 18.9647 20.3852" stroke="#326452" stroke-width="1.92308" stroke-miterlimit="22.9256" stroke-linecap="round" stroke-linejoin="round"/>
<path fill-rule="evenodd" clip-rule="evenodd" d="M14.1582 18.4712H18.9018V20.6827C18.9018 21.8991 17.9066 22.8943 16.6903 22.8943H16.3697C15.1534 22.8943 14.1582 21.8991 14.1582 20.6827V18.4712Z" stroke="#326452" stroke-width="1.92308" stroke-miterlimit="22.9256" stroke-linecap="round" stroke-linejoin="round"/>
</g>
<path d="M48.9004 22.44H52.322C53.3558 22.44 54.2912 22.1774 55.1281 21.6523C55.9651 21.1108 56.6297 20.3805 57.122 19.4615C57.6143 18.5426 57.8604 17.5169 57.8604 16.3846C57.8604 15.2359 57.6143 14.2103 57.122 13.3077C56.6297 12.3887 55.9651 11.6667 55.1281 11.1415C54.2912 10.6 53.3558 10.3292 52.322 10.3292H48.9004V22.44ZM45.9466 25V7.76923H52.2481C53.4953 7.76923 54.644 7.99077 55.6943 8.43384C56.7445 8.87692 57.6553 9.49231 58.4266 10.28C59.2143 11.0513 59.8215 11.9621 60.2481 13.0123C60.6748 14.0462 60.8881 15.1703 60.8881 16.3846C60.8881 17.599 60.6748 18.7313 60.2481 19.7815C59.8215 20.8154 59.2143 21.7262 58.4266 22.5138C57.6553 23.2851 56.7445 23.8923 55.6943 24.3354C54.644 24.7785 53.4953 25 52.2481 25H45.9466ZM69.6066 25.2462C68.4251 25.2462 67.3584 24.9672 66.4066 24.4092C65.4548 23.8349 64.6999 23.0718 64.142 22.12C63.584 21.1518 63.3051 20.0605 63.3051 18.8462C63.3051 17.6318 63.5676 16.5487 64.0928 15.5969C64.6179 14.6451 65.3317 13.8903 66.2343 13.3323C67.1533 12.7579 68.1707 12.4708 69.2866 12.4708C70.4353 12.4708 71.4445 12.7497 72.3143 13.3077C73.2004 13.8656 73.8897 14.6205 74.382 15.5723C74.8907 16.5241 75.1451 17.6154 75.1451 18.8462V19.5108H66.0374C66.1358 20.1836 66.3492 20.7826 66.6774 21.3077C67.022 21.8164 67.4569 22.2185 67.982 22.5138C68.5235 22.8092 69.1061 22.9569 69.7297 22.9569C70.304 22.9569 70.8456 22.8585 71.3543 22.6615C71.8794 22.4482 72.3143 22.161 72.6589 21.8L74.4804 23.4492C73.7256 24.0728 72.9543 24.5323 72.1666 24.8277C71.3953 25.1067 70.542 25.2462 69.6066 25.2462ZM66.062 17.7877H72.5112C72.4128 17.1969 72.2076 16.6718 71.8958 16.2123C71.6004 15.7528 71.223 15.3918 70.7635 15.1292C70.3204 14.8667 69.8281 14.7354 69.2866 14.7354C68.7451 14.7354 68.2445 14.8667 67.7851 15.1292C67.342 15.3754 66.9728 15.7282 66.6774 16.1877C66.382 16.6472 66.1769 17.1805 66.062 17.7877ZM81.1904 25L76.1689 12.6677H79.1966L82.6428 21.6277L86.0643 12.6677H88.9689L83.8981 25H81.1904Z" fill="black"/>
<path d="M91.3072 25V7.76923H98.9626C100.095 7.76923 101.096 7.99077 101.966 8.43384C102.835 8.87692 103.508 9.49231 103.984 10.28C104.476 11.0513 104.723 11.9538 104.723 12.9877C104.723 14.1036 104.411 15.08 103.787 15.9169C103.18 16.7374 102.351 17.3364 101.301 17.7138L104.944 25H101.67L98.3472 18.1077H94.261V25H91.3072ZM94.261 15.7446H98.6918C99.6108 15.7446 100.349 15.4985 100.907 15.0062C101.465 14.4974 101.744 13.8328 101.744 13.0123C101.744 12.1754 101.465 11.5108 100.907 11.0185C100.349 10.5097 99.6108 10.2554 98.6918 10.2554H94.261V15.7446ZM111.002 25.2215C110.149 25.2215 109.386 25.0656 108.713 24.7538C108.057 24.4256 107.54 23.9826 107.162 23.4246C106.801 22.8503 106.621 22.1938 106.621 21.4554C106.621 20.7169 106.809 20.0769 107.187 19.5354C107.581 18.9938 108.13 18.5754 108.836 18.28C109.542 17.9846 110.379 17.8369 111.347 17.8369C111.921 17.8369 112.487 17.9026 113.045 18.0338C113.603 18.1487 114.145 18.3456 114.67 18.6246V17.2462C114.67 16.4256 114.432 15.8103 113.956 15.4C113.497 14.9897 112.791 14.7846 111.839 14.7846C111.33 14.7846 110.781 14.8667 110.19 15.0308C109.616 15.1785 108.967 15.4164 108.245 15.7446L107.261 13.7262C109.066 12.8892 110.772 12.4708 112.381 12.4708C113.989 12.4708 115.228 12.8646 116.098 13.6523C116.984 14.4236 117.427 15.5231 117.427 16.9508V25H114.67V23.72C114.145 24.2287 113.579 24.6062 112.971 24.8523C112.364 25.0985 111.708 25.2215 111.002 25.2215ZM109.23 21.4062C109.23 21.9805 109.46 22.4318 109.919 22.76C110.379 23.0882 110.994 23.2523 111.765 23.2523C112.323 23.2523 112.84 23.1703 113.316 23.0062C113.808 22.8256 114.26 22.5631 114.67 22.2185V20.2246C114.243 20.0277 113.8 19.88 113.341 19.7815C112.881 19.6831 112.381 19.6338 111.839 19.6338C111.035 19.6338 110.395 19.7897 109.919 20.1015C109.46 20.4133 109.23 20.8482 109.23 21.4062ZM125.791 25.1231C124.757 25.1231 123.822 24.8441 122.985 24.2862C122.148 23.7118 121.475 22.9569 120.967 22.0215C120.474 21.0697 120.228 20.0113 120.228 18.8462C120.228 17.6646 120.482 16.6062 120.991 15.6708C121.5 14.719 122.189 13.9641 123.059 13.4062C123.945 12.8482 124.921 12.5692 125.988 12.5692C126.694 12.5692 127.35 12.7087 127.957 12.9877C128.581 13.2503 129.122 13.6441 129.582 14.1692V7.35077L132.364 6.85846V25H129.607V23.3754C129.164 23.9333 128.614 24.3682 127.957 24.68C127.301 24.9754 126.579 25.1231 125.791 25.1231ZM126.653 22.7846C127.244 22.7846 127.793 22.6697 128.302 22.44C128.811 22.1938 129.237 21.8574 129.582 21.4308V16.2369C129.221 15.8103 128.786 15.4821 128.277 15.2523C127.769 15.0226 127.227 14.9077 126.653 14.9077C125.947 14.9077 125.315 15.08 124.757 15.4246C124.216 15.7528 123.781 16.2123 123.453 16.8031C123.125 17.3938 122.96 18.0749 122.96 18.8462C122.96 19.5846 123.125 20.2574 123.453 20.8646C123.781 21.4554 124.216 21.9231 124.757 22.2677C125.315 22.6123 125.947 22.7846 126.653 22.7846ZM139.56 25.2215C138.707 25.2215 137.943 25.0656 137.271 24.7538C136.614 24.4256 136.097 23.9826 135.72 23.4246C135.359 22.8503 135.178 22.1938 135.178 21.4554C135.178 20.7169 135.367 20.0769 135.744 19.5354C136.138 18.9938 136.688 18.5754 137.394 18.28C138.099 17.9846 138.936 17.8369 139.904 17.8369C140.479 17.8369 141.045 17.9026 141.603 18.0338C142.161 18.1487 142.702 18.3456 143.228 18.6246V17.2462C143.228 16.4256 142.99 15.8103 142.514 15.4C142.054 14.9897 141.349 14.7846 140.397 14.7846C139.888 14.7846 139.338 14.8667 138.748 15.0308C138.173 15.1785 137.525 15.4164 136.803 15.7446L135.818 13.7262C137.623 12.8892 139.33 12.4708 140.938 12.4708C142.547 12.4708 143.786 12.8646 144.655 13.6523C145.541 14.4236 145.984 15.5231 145.984 16.9508V25H143.228V23.72C142.702 24.2287 142.136 24.6062 141.529 24.8523C140.922 25.0985 140.266 25.2215 139.56 25.2215ZM137.788 21.4062C137.788 21.9805 138.017 22.4318 138.477 22.76C138.936 23.0882 139.552 23.2523 140.323 23.2523C140.881 23.2523 141.398 23.1703 141.874 23.0062C142.366 22.8256 142.817 22.5631 143.228 22.2185V20.2246C142.801 20.0277 142.358 19.88 141.898 19.7815C141.439 19.6831 140.938 19.6338 140.397 19.6338C139.593 19.6338 138.953 19.7897 138.477 20.1015C138.017 20.4133 137.788 20.8482 137.788 21.4062ZM149.352 25V12.6677H152.134V15.3262C152.495 14.3908 152.962 13.6769 153.537 13.1846C154.111 12.6923 154.776 12.4462 155.53 12.4462C155.76 12.4626 155.965 12.4872 156.146 12.52C156.326 12.5364 156.523 12.5938 156.737 12.6923V15.1292C156.523 15.0308 156.277 14.9569 155.998 14.9077C155.736 14.8585 155.473 14.8338 155.21 14.8338C154.538 14.8338 153.93 15.0144 153.389 15.3754C152.864 15.7364 152.445 16.2369 152.134 16.8769V25H149.352Z" fill="#12171D"/>
<defs>
<clipPath id="clip0_396_110">
<rect width="32.8205" height="32.8205" fill="white" transform="translate(0.119141 0.0898438)"/>
</clipPath>
</defs>
</svg>
