<svg width="115" height="24" viewBox="0 0 115 24" fill="none" xmlns="http://www.w3.org/2000/svg">
<path d="M6.5625 5.71875V3.6315C6.5625 2.80078 7.24219 2.12109 8.07291 2.12109H15.9271C16.7579 2.12109 17.4375 2.80078 17.4375 3.6315V5.71875M22.3594 12.4688V20.4727C22.3594 21.246 21.7264 21.8789 20.9531 21.8789H3.04688C2.27358 21.8789 1.64062 21.2461 1.64062 20.4727V12.5156" stroke="#326452" stroke-width="1.40625" stroke-miterlimit="22.9256" stroke-linecap="round" stroke-linejoin="round"/>
<path d="M10.125 14.8359C5.16614 14.5524 0.703125 13.1344 0.703125 10.5819V7.25391C0.703125 6.47939 1.33481 5.84766 2.10938 5.84766H21.8906C22.6651 5.84766 23.2969 6.47944 23.2969 7.25391V10.5819C23.2969 13.1504 18.7775 14.5701 13.7812 14.8411" stroke="#326452" stroke-width="1.40625" stroke-miterlimit="22.9256" stroke-linecap="round" stroke-linejoin="round"/>
<path fill-rule="evenodd" clip-rule="evenodd" d="M10.2656 13.4414H13.7344V15.0586C13.7344 15.948 13.0066 16.6758 12.1172 16.6758H11.8828C10.9934 16.6758 10.2656 15.948 10.2656 15.0586V13.4414Z" stroke="#326452" stroke-width="1.40625" stroke-miterlimit="22.9256" stroke-linecap="round" stroke-linejoin="round"/>
<path d="M35.672 16.128H38.174C38.93 16.128 39.614 15.936 40.226 15.552C40.838 15.156 41.324 14.622 41.684 13.95C42.044 13.278 42.224 12.528 42.224 11.7C42.224 10.86 42.044 10.11 41.684 9.45C41.324 8.778 40.838 8.25 40.226 7.866C39.614 7.47 38.93 7.272 38.174 7.272H35.672V16.128ZM33.512 18V5.4H38.12C39.032 5.4 39.872 5.562 40.64 5.886C41.408 6.21 42.074 6.66 42.638 7.236C43.214 7.8 43.658 8.466 43.97 9.234C44.282 9.99 44.438 10.812 44.438 11.7C44.438 12.588 44.282 13.416 43.97 14.184C43.658 14.94 43.214 15.606 42.638 16.182C42.074 16.746 41.408 17.19 40.64 17.514C39.872 17.838 39.032 18 38.12 18H33.512ZM50.8134 18.18C49.9494 18.18 49.1694 17.976 48.4734 17.568C47.7774 17.148 47.2254 16.59 46.8174 15.894C46.4094 15.186 46.2054 14.388 46.2054 13.5C46.2054 12.612 46.3974 11.82 46.7814 11.124C47.1654 10.428 47.6874 9.876 48.3474 9.468C49.0194 9.048 49.7634 8.838 50.5794 8.838C51.4194 8.838 52.1574 9.042 52.7934 9.45C53.4414 9.858 53.9454 10.41 54.3054 11.106C54.6774 11.802 54.8634 12.6 54.8634 13.5V13.986H48.2034C48.2754 14.478 48.4314 14.916 48.6714 15.3C48.9234 15.672 49.2414 15.966 49.6254 16.182C50.0214 16.398 50.4474 16.506 50.9034 16.506C51.3234 16.506 51.7194 16.434 52.0914 16.29C52.4754 16.134 52.7934 15.924 53.0454 15.66L54.3774 16.866C53.8254 17.322 53.2614 17.658 52.6854 17.874C52.1214 18.078 51.4974 18.18 50.8134 18.18ZM48.2214 12.726H52.9374C52.8654 12.294 52.7154 11.91 52.4874 11.574C52.2714 11.238 51.9954 10.974 51.6594 10.782C51.3354 10.59 50.9754 10.494 50.5794 10.494C50.1834 10.494 49.8174 10.59 49.4814 10.782C49.1574 10.962 48.8874 11.22 48.6714 11.556C48.4554 11.892 48.3054 12.282 48.2214 12.726ZM59.2841 18L55.6121 8.982H57.8261L60.3461 15.534L62.8481 8.982H64.9721L61.2641 18H59.2841ZM66.6819 18V5.4H72.2799C73.1079 5.4 73.8399 5.562 74.4759 5.886C75.1119 6.21 75.6039 6.66 75.9519 7.236C76.3119 7.8 76.4919 8.46 76.4919 9.216C76.4919 10.032 76.2639 10.746 75.8079 11.358C75.3639 11.958 74.7579 12.396 73.9899 12.672L76.6539 18H74.2599L71.8299 12.96H68.8419V18H66.6819ZM68.8419 11.232H72.0819C72.7539 11.232 73.2939 11.052 73.7019 10.692C74.1099 10.32 74.3139 9.834 74.3139 9.234C74.3139 8.622 74.1099 8.136 73.7019 7.776C73.2939 7.404 72.7539 7.218 72.0819 7.218H68.8419V11.232ZM81.0839 18.162C80.4599 18.162 79.9019 18.048 79.4099 17.82C78.9299 17.58 78.5519 17.256 78.2759 16.848C78.0119 16.428 77.8799 15.948 77.8799 15.408C77.8799 14.868 78.0179 14.4 78.2939 14.004C78.5819 13.608 78.9839 13.302 79.4999 13.086C80.0159 12.87 80.6279 12.762 81.3359 12.762C81.7559 12.762 82.1699 12.81 82.5779 12.906C82.9859 12.99 83.3819 13.134 83.7659 13.338V12.33C83.7659 11.73 83.5919 11.28 83.2439 10.98C82.9079 10.68 82.3919 10.53 81.6959 10.53C81.3239 10.53 80.9219 10.59 80.4899 10.71C80.0699 10.818 79.5959 10.992 79.0679 11.232L78.3479 9.756C79.6679 9.144 80.9159 8.838 82.0919 8.838C83.2679 8.838 84.1739 9.126 84.8099 9.702C85.4579 10.266 85.7819 11.07 85.7819 12.114V18H83.7659V17.064C83.3819 17.436 82.9679 17.712 82.5239 17.892C82.0799 18.072 81.5999 18.162 81.0839 18.162ZM79.7879 15.372C79.7879 15.792 79.9559 16.122 80.2919 16.362C80.6279 16.602 81.0779 16.722 81.6419 16.722C82.0499 16.722 82.4279 16.662 82.7759 16.542C83.1359 16.41 83.4659 16.218 83.7659 15.966V14.508C83.4539 14.364 83.1299 14.256 82.7939 14.184C82.4579 14.112 82.0919 14.076 81.6959 14.076C81.1079 14.076 80.6399 14.19 80.2919 14.418C79.9559 14.646 79.7879 14.964 79.7879 15.372ZM91.8984 18.09C91.1424 18.09 90.4584 17.886 89.8464 17.478C89.2344 17.058 88.7424 16.506 88.3704 15.822C88.0104 15.126 87.8304 14.352 87.8304 13.5C87.8304 12.636 88.0164 11.862 88.3884 11.178C88.7604 10.482 89.2644 9.93 89.9004 9.522C90.5484 9.114 91.2624 8.91 92.0424 8.91C92.5584 8.91 93.0384 9.012 93.4824 9.216C93.9384 9.408 94.3344 9.696 94.6704 10.08V5.094L96.7044 4.734V18H94.6884V16.812C94.3644 17.22 93.9624 17.538 93.4824 17.766C93.0024 17.982 92.4744 18.09 91.8984 18.09ZM92.5284 16.38C92.9604 16.38 93.3624 16.296 93.7344 16.128C94.1064 15.948 94.4184 15.702 94.6704 15.39V11.592C94.4064 11.28 94.0884 11.04 93.7164 10.872C93.3444 10.704 92.9484 10.62 92.5284 10.62C92.0124 10.62 91.5504 10.746 91.1424 10.998C90.7464 11.238 90.4284 11.574 90.1884 12.006C89.9484 12.438 89.8284 12.936 89.8284 13.5C89.8284 14.04 89.9484 14.532 90.1884 14.976C90.4284 15.408 90.7464 15.75 91.1424 16.002C91.5504 16.254 92.0124 16.38 92.5284 16.38ZM101.967 18.162C101.343 18.162 100.785 18.048 100.293 17.82C99.8127 17.58 99.4347 17.256 99.1587 16.848C98.8947 16.428 98.7627 15.948 98.7627 15.408C98.7627 14.868 98.9007 14.4 99.1767 14.004C99.4647 13.608 99.8667 13.302 100.383 13.086C100.899 12.87 101.511 12.762 102.219 12.762C102.639 12.762 103.053 12.81 103.461 12.906C103.869 12.99 104.265 13.134 104.649 13.338V12.33C104.649 11.73 104.475 11.28 104.127 10.98C103.791 10.68 103.275 10.53 102.579 10.53C102.207 10.53 101.805 10.59 101.373 10.71C100.953 10.818 100.479 10.992 99.9507 11.232L99.2307 9.756C100.551 9.144 101.799 8.838 102.975 8.838C104.151 8.838 105.057 9.126 105.693 9.702C106.341 10.266 106.665 11.07 106.665 12.114V18H104.649V17.064C104.265 17.436 103.851 17.712 103.407 17.892C102.963 18.072 102.483 18.162 101.967 18.162ZM100.671 15.372C100.671 15.792 100.839 16.122 101.175 16.362C101.511 16.602 101.961 16.722 102.525 16.722C102.933 16.722 103.311 16.662 103.659 16.542C104.019 16.41 104.349 16.218 104.649 15.966V14.508C104.337 14.364 104.013 14.256 103.677 14.184C103.341 14.112 102.975 14.076 102.579 14.076C101.991 14.076 101.523 14.19 101.175 14.418C100.839 14.646 100.671 14.964 100.671 15.372ZM109.127 18V8.982H111.161V10.926C111.425 10.242 111.767 9.72 112.187 9.36C112.607 9 113.093 8.82 113.645 8.82C113.813 8.832 113.963 8.85 114.095 8.874C114.227 8.886 114.371 8.928 114.527 9V10.782C114.371 10.71 114.191 10.656 113.987 10.62C113.795 10.584 113.603 10.566 113.411 10.566C112.919 10.566 112.475 10.698 112.079 10.962C111.695 11.226 111.389 11.592 111.161 12.06V18H109.127Z" fill="#F3EEDB"/>
</svg>
